<svg id="Calque_1" data-name="Calque 1" xmlns="http://www.w3.org/2000/svg" viewBox="0 0 572.17 900.34"><defs><style>.cls-1{fill:#fff;}</style></defs><title>Sans titre - 1</title><path id="border2" class="cls-1" d="M170.64,57.6l-62.93,66.11V957.94H617l62.93-65.72V57.6Zm476,821.26-43.88,45.82H141V816.41H646.63Zm0-95.7H141V137L184.9,90.85H646.63Z" transform="translate(-107.71 -57.6)"/><g id="text"><path class="cls-1" d="M184.81,887.55H180l-.83-5.55h-5.89l-.84,5.55H168l4.89-30.62h7Zm-11-9.72h4.66l-2.33-15.48Z" transform="translate(-107.71 -57.6)"/><path class="cls-1" d="M187,856.93h7.6q7.19,0,7.18,7.58V880q0,7.56-7.18,7.56H187Zm4.81,4.38v21.86h2.71c1.64,0,2.45-1,2.45-3V864.27c0-2-.81-3-2.45-3Z" transform="translate(-107.71 -57.6)"/><path class="cls-1" d="M212.12,881.91l3.68-25h4.42l-4.72,30.62h-7.18l-4.72-30.62h4.85Z" transform="translate(-107.71 -57.6)"/><path class="cls-1" d="M236.68,887.55h-4.85L231,882h-5.89l-.84,5.55h-4.42l4.89-30.62h7Zm-11-9.72h4.65L228,862.35Z" transform="translate(-107.71 -57.6)"/><path class="cls-1" d="M243.2,865.38v22.17h-4.34V856.93h6l4.94,18.34V856.93h4.29v30.62h-5Z" transform="translate(-107.71 -57.6)"/><path class="cls-1" d="M271.53,876.13v4.07q0,7.69-7.17,7.69t-7.18-7.69V864.27q0-7.68,7.18-7.68t7.17,7.68v3H267V864c0-2-.83-3-2.49-3s-2.5,1-2.5,3V880.5c0,2,.83,3,2.5,3s2.49-1,2.49-3v-4.37Z" transform="translate(-107.71 -57.6)"/><path class="cls-1" d="M279.24,869.85h6.62v4.35h-6.62v9h8.31v4.38H274.44V856.93h13.11v4.38h-8.31Z" transform="translate(-107.71 -57.6)"/><path class="cls-1" d="M290.52,856.93h7.6q7.17,0,7.18,7.58V880q0,7.56-7.18,7.56h-7.6Zm4.8,4.38v21.86H298c1.63,0,2.45-1,2.45-3V864.27c0-2-.82-3-2.45-3Z" transform="translate(-107.71 -57.6)"/><path class="cls-1" d="M322.21,856.93q7.17,0,7.17,7.58v4q0,7.56-7.17,7.56h-2.29v11.51h-4.8V856.93Zm-2.29,4.38v10.37h2.29c1.56,0,2.35-1,2.35-2.9v-4.59c0-1.92-.79-2.88-2.35-2.88Z" transform="translate(-107.71 -57.6)"/><path class="cls-1" d="M336.41,869.85H343v4.35h-6.62v9h8.31v4.38H331.61V856.93h13.11v4.38h-8.31Z" transform="translate(-107.71 -57.6)"/><path class="cls-1" d="M357.74,887.55a10.4,10.4,0,0,1-.32-1.24,22.16,22.16,0,0,1-.1-2.52V879c0-2.61-1.06-3.91-3.16-3.91h-1.67v12.47h-4.8V856.93H355q7.13,0,7.13,7v2.42c0,3.14-1.05,5.22-3.16,6.21q3.19,1.33,3.2,6.52v4.72a10.23,10.23,0,0,0,.51,3.71Zm-5.25-26.24v9.41h1.88c1.94,0,2.9-1.08,2.9-3.24v-3c0-2.11-.81-3.16-2.45-3.16Z" transform="translate(-107.71 -57.6)"/><path class="cls-1" d="M371.75,856.59q7.1,0,7.09,7.68v1.63h-4.55V864c0-2-.8-3-2.41-3s-2.41,1-2.41,3a6.42,6.42,0,0,0,1.47,4,17.59,17.59,0,0,0,1.52,1.62l1.28,1.2.45.4q1.06,1,1.71,1.71a12.91,12.91,0,0,1,1.51,2,10,10,0,0,1,1.48,5.33q0,7.69-7.18,7.69t-7.18-7.69v-3h4.55v3.26c0,2,.84,3,2.5,3s2.48-1,2.48-3a6.43,6.43,0,0,0-1.45-4,18.89,18.89,0,0,0-1.52-1.64l-1.73-1.6c-.71-.66-1.29-1.23-1.73-1.71a13.61,13.61,0,0,1-1.49-2,10,10,0,0,1-1.48-5.36Q364.66,856.59,371.75,856.59Z" transform="translate(-107.71 -57.6)"/><path class="cls-1" d="M381.6,856.93h4.8v30.62h-4.8Z" transform="translate(-107.71 -57.6)"/><path class="cls-1" d="M396.4,856.59q7.08,0,7.09,7.68v1.63h-4.55V864c0-2-.81-3-2.42-3s-2.41,1-2.41,3a6.42,6.42,0,0,0,1.47,4,19.1,19.1,0,0,0,1.52,1.62l1.28,1.2.45.4q1.07,1,1.71,1.71a13,13,0,0,1,1.52,2,10,10,0,0,1,1.47,5.33q0,7.69-7.18,7.69t-7.17-7.69v-3h4.55v3.26c0,2,.83,3,2.5,3s2.47-1,2.47-3a6.37,6.37,0,0,0-1.45-4,17.43,17.43,0,0,0-1.52-1.64l-1.73-1.6c-.71-.66-1.28-1.23-1.73-1.71a15.24,15.24,0,0,1-1.49-2,10.09,10.09,0,0,1-1.47-5.36Q389.31,856.59,396.4,856.59Z" transform="translate(-107.71 -57.6)"/><path class="cls-1" d="M404.94,856.93H419.8v4.38h-5v26.24H410V861.31h-5Z" transform="translate(-107.71 -57.6)"/><path class="cls-1" d="M426.79,869.85h6.62v4.35h-6.62v9h8.3v4.38H422V856.93h13.11v4.38h-8.3Z" transform="translate(-107.71 -57.6)"/><path class="cls-1" d="M442.35,865.38v22.17H438V856.93h6L449,875.27V856.93h4.29v30.62h-5Z" transform="translate(-107.71 -57.6)"/><path class="cls-1" d="M455.42,856.93h14.87v4.38h-5v26.24h-4.81V861.31h-5Z" transform="translate(-107.71 -57.6)"/><path class="cls-1" d="M477.93,856.93h14.86v4.38h-5v26.24H483V861.31h-5Z" transform="translate(-107.71 -57.6)"/><path class="cls-1" d="M499.78,887.55H495V856.93h4.81v13.13h5.47V856.93h4.91v30.62h-4.91V874.44h-5.47Z" transform="translate(-107.71 -57.6)"/><path class="cls-1" d="M523.7,887.55a7.59,7.59,0,0,1-.32-1.24,19.59,19.59,0,0,1-.11-2.52V879q0-3.91-3.16-3.91h-1.67v12.47h-4.8V856.93h7.26q7.13,0,7.13,7v2.42c0,3.14-1,5.22-3.16,6.21,2.14.89,3.2,3.06,3.2,6.52v4.72a10,10,0,0,0,.52,3.71Zm-5.26-26.24v9.41h1.88q2.91,0,2.91-3.24v-3c0-2.11-.82-3.16-2.46-3.16Z" transform="translate(-107.71 -57.6)"/><path class="cls-1" d="M536,869.85h6.62v4.35H536v9h8.3v4.38H531.21V856.93h13.11v4.38H536Z" transform="translate(-107.71 -57.6)"/><path class="cls-1" d="M562.86,887.55H558l-.83-5.55h-5.89l-.84,5.55H546l4.89-30.62H558Zm-11-9.72h4.66l-2.33-15.48Z" transform="translate(-107.71 -57.6)"/><path class="cls-1" d="M563.78,856.93h14.86v4.38h-5v26.24h-4.8V861.31h-5Z" transform="translate(-107.71 -57.6)"/><path class="cls-1" d="M586.46,877.62l8.75-20.69h5.24v20.69h2.28V882h-2.28v5.55h-4.81V882h-9.18Zm9.18,0V866.3l-4.76,11.32Z" transform="translate(-107.71 -57.6)"/><path class="cls-1" d="M612,861c-1.67,0-2.5,1-2.5,3v3.29h-4.55v-3q0-7.68,7.17-7.68t7.18,7.68a13.54,13.54,0,0,1-1.62,6.45,18.19,18.19,0,0,1-1.65,2.54,26.33,26.33,0,0,1-1.86,2.23l-1.79,2a20.62,20.62,0,0,0-1.52,1.88,5.19,5.19,0,0,0-1.11,3.8h9.1v4.38h-13.9v-3.76a10.94,10.94,0,0,1,1.49-5.57,17.05,17.05,0,0,1,1.52-2.18c.38-.46,1-1.12,1.75-2l.9-1c.33-.35.61-.68.85-1a16,16,0,0,0,1.54-2.16,10.7,10.7,0,0,0,1.47-5.46C614.43,862.13,613.61,861,612,861Z" transform="translate(-107.71 -57.6)"/></g><g id="_42" data-name="42"><path class="cls-1" d="M286.09,654.52H167.88V544.79l93.68-27.26V591.4h24.53v-81l95-27.66L381.08,757h-95Z" transform="translate(-107.71 -57.6)"/><path class="cls-1" d="M405.63,475.6l213.58-62.16V628.77H499.65v78.38h24.52v-48.7h95V757H405.63V565.65H524.17V486H494.5v50H405.63Z" transform="translate(-107.71 -57.6)"/></g><polygon id="t" class="cls-1" points="511.54 60.13 364.89 60.13 364.89 110.83 412.63 110.84 412.63 352.92 464.07 337.94 464.07 110.84 511.55 110.84 511.54 60.13"/><path id="p" class="cls-1" d="M380.93,326.65l63.9-18.59V117.72H329.48V466.06l51.45-15Zm0-158.21h12.45v101l-12.45,3.63Z" transform="translate(-107.71 -57.6)"/><path id="a" class="cls-1" d="M219.32,373.68l12.36-3.6V494.51l51.69-15V117.72H196L167.88,147.4l-.16,365.74,51.6-15Zm0-205.24h12.36v148l-12.36,3.6Z" transform="translate(-107.71 -57.6)"/></svg>